<svg xmlns="http://www.w3.org/2000/svg" xmlns:xlink="http://www.w3.org/1999/xlink" width="224" height="43" viewBox="0 0 224 43">
  <defs>
    <clipPath id="clip-LogoSmall_1">
      <rect width="224" height="43"/>
    </clipPath>
  </defs>
  <g id="LogoSmall_1" data-name="LogoSmall – 1" clip-path="url(#clip-LogoSmall_1)">
    <rect width="224" height="43" fill="#fff"/>
    <path id="Path_16" data-name="Path 16" d="M1.818-1.021V-6.958A11.409,11.409,0,0,0,5.325-4.926a11.272,11.272,0,0,0,3.822.677,8.476,8.476,0,0,0,1.976-.2,4.629,4.629,0,0,0,1.41-.566,2.468,2.468,0,0,0,.844-.854,2.13,2.13,0,0,0,.278-1.067,2.306,2.306,0,0,0-.445-1.392A4.792,4.792,0,0,0,12-9.463a12.7,12.7,0,0,0-1.828-1q-1.058-.482-2.282-.983a11.648,11.648,0,0,1-4.648-3.173,6.927,6.927,0,0,1-1.531-4.527,7.211,7.211,0,0,1,.835-3.572,7.091,7.091,0,0,1,2.273-2.458A10.192,10.192,0,0,1,8.146-26.6a17.114,17.114,0,0,1,4.008-.455,24.106,24.106,0,0,1,3.683.25,14.485,14.485,0,0,1,2.959.77v5.548a8.949,8.949,0,0,0-1.457-.816,11.54,11.54,0,0,0-1.624-.584,12.384,12.384,0,0,0-1.661-.343,11.753,11.753,0,0,0-1.568-.111,8.176,8.176,0,0,0-1.855.195,4.759,4.759,0,0,0-1.41.547,2.723,2.723,0,0,0-.891.844,2,2,0,0,0-.315,1.1,2.109,2.109,0,0,0,.353,1.2,4.044,4.044,0,0,0,1,1,10.633,10.633,0,0,0,1.577.928q.928.455,2.1.937a23.363,23.363,0,0,1,2.867,1.419,10.191,10.191,0,0,1,2.18,1.7,6.614,6.614,0,0,1,1.392,2.162,7.638,7.638,0,0,1,.482,2.83,7.579,7.579,0,0,1-.844,3.739A6.854,6.854,0,0,1,16.829-1.29,9.937,9.937,0,0,1,13.461.056,19.463,19.463,0,0,1,9.407.464,22.543,22.543,0,0,1,5.242.093,12.575,12.575,0,0,1,1.818-1.021ZM26.737-22.006a3.425,3.425,0,0,1-2.431-.881,2.84,2.84,0,0,1-.946-2.162,2.739,2.739,0,0,1,.946-2.152,3.538,3.538,0,0,1,2.431-.835,3.53,3.53,0,0,1,2.44.835,2.751,2.751,0,0,1,.937,2.152,2.828,2.828,0,0,1-.937,2.189A3.483,3.483,0,0,1,26.737-22.006ZM29.632,0H23.769V-19h5.863ZM53.2-2.171q0,5.288-3.062,8.192t-8.869,2.9A14.058,14.058,0,0,1,35.18,7.83V2.895A11.655,11.655,0,0,0,41.1,4.6a6.375,6.375,0,0,0,4.6-1.568,5.626,5.626,0,0,0,1.633-4.258v-1.5h-.074A6.548,6.548,0,0,1,41.34.464,7.119,7.119,0,0,1,35.569-2.1a10.384,10.384,0,0,1-2.134-6.865,11.566,11.566,0,0,1,2.375-7.663,7.754,7.754,0,0,1,6.253-2.839,5.77,5.77,0,0,1,5.2,2.672h.074V-19H53.2ZM47.407-9.129v-1.5A4.618,4.618,0,0,0,46.34-13.7a3.451,3.451,0,0,0-2.774-1.271A3.586,3.586,0,0,0,40.5-13.452a7.155,7.155,0,0,0-1.113,4.286,6.039,6.039,0,0,0,1.058,3.757,3.447,3.447,0,0,0,2.895,1.382,3.588,3.588,0,0,0,2.941-1.4A5.744,5.744,0,0,0,47.407-9.129ZM76.445,0H70.6V-10.558q0-4.416-3.154-4.416a3.13,3.13,0,0,0-2.5,1.169,4.453,4.453,0,0,0-.983,2.969V0H58.095V-19h5.863v3.006h.074a6.719,6.719,0,0,1,6.1-3.47q6.309,0,6.309,7.83ZM96.893,0H91.345V-2.728h-.074A6.192,6.192,0,0,1,85.611.464,5.92,5.92,0,0,1,81.26-1.1a5.618,5.618,0,0,1-1.586-4.184q0-5.529,6.55-6.383l5.158-.687q0-3.117-3.377-3.117a11.527,11.527,0,0,0-6.457,2.022v-4.416A14.526,14.526,0,0,1,84.9-18.981a17.605,17.605,0,0,1,3.869-.482q8.127,0,8.127,8.108ZM91.382-7.719V-9l-3.451.445q-2.857.371-2.857,2.579a2.131,2.131,0,0,0,.7,1.642,2.674,2.674,0,0,0,1.883.64,3.471,3.471,0,0,0,2.69-1.141A4.122,4.122,0,0,0,91.382-7.719ZM107.395,0h-5.863V-28.129h5.863Z" transform="translate(110.555 32.141)" fill="#c2255c"/>
    <path id="Path_15" data-name="Path 15" d="M19,0H3.043V-26.607H18.388v4.88H9.036v5.919h8.7v4.861h-8.7v6.086H19ZM41.043,0H35.2V-10.558q0-4.416-3.154-4.416a3.13,3.13,0,0,0-2.5,1.169,4.453,4.453,0,0,0-.983,2.969V0H22.692V-19h5.863v3.006h.074a6.719,6.719,0,0,1,6.1-3.47q6.309,0,6.309,7.83ZM57.167-.223a8.666,8.666,0,0,1-3.915.687q-6.2,0-6.2-6.438v-8.7h-3.08V-19h3.08v-4.1l5.845-1.67V-19h4.268v4.323H52.9V-7q0,2.969,2.356,2.969a3.973,3.973,0,0,0,1.911-.538Zm6.271-21.783a3.425,3.425,0,0,1-2.431-.881,2.84,2.84,0,0,1-.946-2.162,2.739,2.739,0,0,1,.946-2.152,3.538,3.538,0,0,1,2.431-.835,3.53,3.53,0,0,1,2.44.835,2.751,2.751,0,0,1,.937,2.152,2.828,2.828,0,0,1-.937,2.189A3.483,3.483,0,0,1,63.438-22.006ZM66.333,0H60.47V-19h5.863ZM82.754-.223a8.666,8.666,0,0,1-3.915.687q-6.2,0-6.2-6.438v-8.7h-3.08V-19h3.08v-4.1l5.845-1.67V-19h4.268v4.323H78.486V-7q0,2.969,2.356,2.969a3.973,3.973,0,0,0,1.911-.538ZM104.147-19,96.429,1.521q-2.783,7.4-8.387,7.4a10.745,10.745,0,0,1-3.507-.482V3.767a4.931,4.931,0,0,0,2.542.687,3.176,3.176,0,0,0,3.154-2.134l1-2.356L83.515-19h6.494L93.553-7.44a15.021,15.021,0,0,1,.52,2.542h.074a17.724,17.724,0,0,1,.612-2.5L98.34-19Z" transform="translate(0 31)" fill="#f06595"/>
  </g>
</svg>
